<?xml version="1.0" encoding="utf-8"?>
<!-- Generator: Adobe Illustrator 24.1.1, SVG Export Plug-In . SVG Version: 6.00 Build 0)  -->
<svg version="1.1" id="Layer_1" xmlns="http://www.w3.org/2000/svg" xmlns:xlink="http://www.w3.org/1999/xlink" x="0px" y="0px"
	 viewBox="0 0 967.4 967.4" style="enable-background:new 0 0 967.4 967.4;" xml:space="preserve">
<style type="text/css">
	.st0{fill-rule:evenodd;clip-rule:evenodd;fill:#FDEAE0;}
	.st1{clip-path:url(#SVGID_2_);fill-rule:evenodd;clip-rule:evenodd;fill:#FBC5A8;}
	.st2{clip-path:url(#SVGID_4_);fill-rule:evenodd;clip-rule:evenodd;fill:#F6ACC2;}
	.st3{clip-path:url(#SVGID_6_);fill-rule:evenodd;clip-rule:evenodd;fill:#E99AC2;}
	.st4{clip-path:url(#SVGID_8_);fill-rule:evenodd;clip-rule:evenodd;fill:#75CCDA;}
</style>
<g id="Layer_3">
	<g>
		<g>
			<circle id="XMLID_5_" class="st0" cx="486.6" cy="486.5" r="459.5"/>
		</g>
		<g>
			<defs>
				<circle id="SVGID_1_" cx="486.6" cy="486.5" r="459.5"/>
			</defs>
			<clipPath id="SVGID_2_">
				<use xlink:href="#SVGID_1_"  style="overflow:visible;"/>
			</clipPath>
			<path class="st1" d="M24.8,202.1c76.8-92.6,158.8-135.9,181.9-147.6C283.1,16.1,348.3,5.7,389.9-0.4
				c138.5-20.7,242,7.1,314.8,27.5c108.2,30.2,134.4,60.6,146.5,82.4c18.8,34,6.1,51.7,28.6,79c36.6,44.2,87.9,18.8,138.2,64.1
				c33.6,30.1,43,69.9,45.8,83.6c14.3,71.4-19,132.7-29.8,151.1c-110.7,190-480.8,266-793.1,194.6c-2.3-0.6-5.8-1.4-10-2.3
				c-65.2-15.4-293.1-70.2-331.1-199.1C-127.9,386.3-44.8,286,24.8,202.1z"/>
		</g>
		<g>
			<defs>
				<circle id="SVGID_3_" cx="486.6" cy="486.5" r="459.5"/>
			</defs>
			<clipPath id="SVGID_4_">
				<use xlink:href="#SVGID_3_"  style="overflow:visible;"/>
			</clipPath>
			<path class="st2" d="M-139.9,338.3c7.9-7.9,37.4,32.7,88.2,36.6c30.7,2.4,47.7-10.3,131.6-56.1c104.9-57.2,116-57.8,124.8-57.2
				c62.2,3.8,69.5,69.3,135,79c56.2,8.2,65.1-37.8,147.6-52.6c92.6-16.6,117.8,35,193.3,10.3c64.6-21.1,62.8-64.1,121.3-72
				c45.8-6.2,56.5,18.8,138.5,35.4c69.6,14.1,79.3-0.5,136.2,10.3c64.6,12.3,166.7,52.7,171.6,101.8c8.8,84.2-272.7,174.3-290,179.8
				c-19.3,6.1-33.7,10.5-38.9,12c-185.1,52.7-368.9,105-585.2,96.4C24.5,649.7-68.2,523.7-68.4,523c-0.2-0.3-0.2-0.6-0.2-0.6
				c-0.2-0.6-0.2-1.4-0.6-4.4C-87.1,409.7-150.6,348.8-139.9,338.3z"/>
		</g>
		<g>
			<defs>
				<circle id="SVGID_5_" cx="486.6" cy="486.5" r="459.5"/>
			</defs>
			<clipPath id="SVGID_6_">
				<use xlink:href="#SVGID_5_"  style="overflow:visible;"/>
			</clipPath>
			<path class="st3" d="M0.3,545.9c7-12.3,32.1-51.5,76-61.1c48.2-10.5,61.7,26.9,121.3,28.6c67.9,1.8,83.3-45.6,140.8-36.6
				c51.2,8.1,52,49.9,99.6,58.4c68.2,12.2,89.7-70.1,177.4-81.3c88.3-11.2,121.9,65.2,202.6,43.5c52.1-14,50-49.1,105.3-75.5
				c99.7-47.6,250.5-2.3,262.1,54.9c4.1,19.9-8.7,42.1-179.1,177.8c-104,82.8-155.2,126.3-170.5,131.6
				c-34.8,12.2-62.3,17.2-78.7,19.6c-377,55-400.4,72.5-487.3,54.3C234.4,852.7,46.1,813.3-2.1,683C-8.2,666.3-32,602.8,0.3,545.9z"
				/>
		</g>
		<g>
			<defs>
				<circle id="SVGID_7_" cx="486.6" cy="486.5" r="459.5"/>
			</defs>
			<clipPath id="SVGID_8_">
				<use xlink:href="#SVGID_7_"  style="overflow:visible;"/>
			</clipPath>
			<path class="st4" d="M77,863.2c53.2,43.8,40.1,88.9,87.6,124c16.3,12,43,25.4,86.9,26.3c84.1,26.8,154.6,35,201.4,37.7
				c44.1,2.6,244.9,10.9,400.5-95c19.5-13.2,63.7-45.6,88.6-102.3c2.6-5.9,33.3-75.8,8.1-96.1c-12.9-10.3-26.9-0.8-52.1-0.6
				c-71.1,0.3-88-76.5-148.8-82.4c-58.2-5.8-70.5,61.9-140.8,62.9c-56.8,0.9-61.7-48.2-127.1-51.5c-79-4-96.8,48.6-178.6,47
				c-78.9-1.7-95-51.2-148.8-33.1c-37.1,12.5-33.1,37.5-105.9,80.7c-21.7,12.9-37.1,19.6-37.7,32.1C9.6,830.8,42.9,835,77,863.2z"/>
		</g>
	</g>
</g>
<g id="Layer_1_1_">
</g>
<g id="Layer_2_1_">
</g>
</svg>
