<?xml version="1.0" encoding="utf-8"?>
<!-- Generator: Adobe Illustrator 24.1.1, SVG Export Plug-In . SVG Version: 6.00 Build 0)  -->
<svg version="1.1" id="Layer_3" xmlns="http://www.w3.org/2000/svg" xmlns:xlink="http://www.w3.org/1999/xlink" x="0px" y="0px"
	 viewBox="0 0 1000 1000" style="enable-background:new 0 0 1000 1000;" xml:space="preserve">
<style type="text/css">
	.design1{fill-rule:evenodd;clip-rule:evenodd;fill:#F7ACC2;}
</style>
<g>
	<g>
		<path class="design1" d="M597,197.8c-34.2-14.5-81.1-14.1-130.3-13c-10.1,7-20.8,3.4-34.7,8.7c-34.9,13.2-79.2,45.3-99.9,73.8
			c-98.5,135.6-3.2,253.2,47.8,360.4c83.9,0,167.9,0,251.8,0c6.5-4.5,39.9-74.4,47.8-86.8c14-22.2,34.3-46.2,43.4-73.8
			C764.4,341.7,668.6,228.3,597,197.8z M670.8,458.3c-15.2,40.9-55.1,70.4-69.5,112.9c-63.7,0-127.4,0-191,0
			c-9.4-6.2-11.1-28.9-17.4-39.1c-38.1-62-82-142-26.1-225.8c14.2-21.2,49.5-50.3,73.8-60.8c15.7-6.8,34.4-4.6,47.8-13
			C606.7,231.9,718.1,330.9,670.8,458.3z M423.3,658.1c-16.2,19.3-27.4,51.9,0,69.5c6.5,2.8,1.9,5.4,8.7,0c57,0.6,141.8,9.1,178-13
			c0.5-30-2.9-40.4-13-56.4C539.1,658.1,481.2,658.1,423.3,658.1z M453.7,801.4c59.7,14.3,88.8,9.9,130.3-17.4
			c2.2-10.7,4-16,4.3-30.4c-53.5,0-107.1,0-160.7,0C431.3,780.2,442.3,784.4,453.7,801.4z"/>
	</g>
</g>
</svg>
