<?xml version="1.0" encoding="utf-8"?>
<!-- Generator: Adobe Illustrator 24.1.1, SVG Export Plug-In . SVG Version: 6.00 Build 0)  -->
<svg version="1.1" id="Layer_1" xmlns="http://www.w3.org/2000/svg" xmlns:xlink="http://www.w3.org/1999/xlink" x="0px" y="0px"
	 viewBox="0 0 1000 1000" style="enable-background:new 0 0 1000 1000;" xml:space="preserve">
<style type="text/css">
	.ops1{fill-rule:evenodd;clip-rule:evenodd;fill:#ea9bc3;}
	.ops2{fill-rule:evenodd;clip-rule:evenodd;fill:#0F1014;}
</style>
<g id="Layer_2_1_">
	<circle class="ops2" cx="500" cy="500" r="500"/>
</g>
<g id="Layer_1_1_">
	<g>
		<g>
			<path class="ops1" d="M250.5,378.5c58.2,30.4,117.8,60.4,176.1,90.9c17.8,9.3,34.6,18.4,53.8,25.8c5.9,2.3,16.3,6.7,25.8,4.5
				c28-6.5,48.9-21.8,71.8-33.6c36.1-18.8,72.4-36.5,107.7-55c31.2-16.3,62.5-31.2,93.1-47.1c13.6-7.1,33.2-12.4,41.5-24.7
				c5.1-7.5,4-17.3,3.4-28c-3.4-3.6-5-9.4-9-12.3c-6.3-4.6-14.2-6.4-21.3-10.1c-14.9-7.8-30.2-17-44.9-24.7
				c-5.2-2.7-9.8-2.7-14.6-5.6c-47.7-29-100.4-51.2-150.3-77.4c-25.6-13.4-54.1-37.2-92-35.9c-4.7,3.4-12.4,3.2-17.9,5.6
				c-16.3,7.1-34,17.2-50.5,25.8c-42.7,22.3-88.9,43.4-130.1,68.4c-16.3,9.9-34.8,16.3-50.5,25.8c-15.6,9.5-53.9,21.5-62.8,34.8
				c-5,7.4-6.1,23-1.1,31.4C187.8,352.3,232.5,369.1,250.5,378.5z M242.7,551.3c58.9,34.5,123.2,63.8,183.9,95.3
				c16.7,8.7,31.9,15.9,49.4,23.6c6,2.6,17,8.7,26.9,6.7c34.9-7,60.5-25.8,88.6-40.4c55.1-28.6,110.3-55.8,164.9-84.1
				c15.9-8.2,55.3-23.1,63.9-35.9c3-4.4,6.8-14.9,4.5-23.6c-7.6-28.1-51.5-30.7-70.7-48.2c-15.1,1.6-41.7,20-55,26.9
				c-42,21.8-83.6,41-125.6,62.8C552,545.6,534.1,558,500.7,558c-5.2,0-10.5,0-15.7,0c-35.2-8.2-60.3-24.5-88.6-39.3
				c-20.9-10.8-41.4-20.8-61.7-31.4c-7.5-3.9-15.2-5.7-22.4-10.1c-13.7-8.3-29.4-14-43.7-22.4c-6.5-3.8-13-9.6-22.4-10.1
				c-15.2,14.3-46.3,19.4-61.7,34.8c-4.5,4.5-11.7,13.6-9,24.7C182.3,532.2,220.3,538.1,242.7,551.3z M813.6,652.2
				c-18.2-12.4-42.5-16.6-59.4-30.3c-15.4,1.5-41.7,20-55,26.9c-42,21.8-83.7,41-125.6,62.8c-17.9,9.3-52.7,30.8-85.2,23.6
				c-45.5-10.1-77-31.4-113.3-50.5c-18.6-9.8-38.2-16-56.1-26.9c-15.1-9.2-31.9-16.1-48.2-24.7c-7.7-4-13.6-10.8-24.7-11.2
				c-4.7,4.4-11.7,6-17.9,9c-13.7,6.6-31.1,15.2-42.6,24.7c-5.1,4.2-12.8,13.5-10.1,24.7c6.9,28.2,44.3,35.8,67.3,48.2
				c60.3,32.6,123.1,63.7,183.9,95.3c15.9,8.3,30.5,15.2,47.1,22.4c6.9,3,18.8,10.4,30.3,7.9c27.1-5.9,48.4-19,69.5-31.4
				c14.5-8.5,29.9-13.5,44.9-21.3c22.2-11.5,45-24.3,67.3-35.9c31.6-16.4,64-30.6,94.2-48.2c13.1-7.6,32.1-11.3,40.4-23.6
				c5.1-7.5,4-17.3,3.4-28C820,661.7,818.1,655.3,813.6,652.2z"/>
		</g>
	</g>
</g>
</svg>
