<?xml version="1.0" standalone="no"?>
<!DOCTYPE svg PUBLIC "-//W3C//DTD SVG 20010904//EN"
 "http://www.w3.org/TR/2001/REC-SVG-20010904/DTD/svg10.dtd">
<svg version="1.0" xmlns="http://www.w3.org/2000/svg"
 width="1280.000000pt" height="1407.000000pt" viewBox="0 0 1280.000000 1407.000000"
 preserveAspectRatio="xMidYMid meet">
<metadata>
Created by potrace 1.16, written by Peter Selinger 2001-2019
</metadata>
<g transform="translate(0.000000,1407.000000) scale(0.100000,-0.100000)"
fill="#000000" stroke="none">
<path d="M9483 11881 c1 -5 -365 -296 -813 -646 -448 -350 -816 -641 -818
-646 -2 -5 1 -9 7 -9 22 0 248 -108 376 -179 466 -262 874 -617 1217 -1061
100 -130 269 -383 261 -391 -9 -8 -1653 -959 -1658 -959 -2 0 -15 21 -30 46
-75 128 -230 311 -365 431 -541 482 -1292 610 -1971 338 -675 -272 -1122 -895
-1191 -1662 -27 -308 46 -655 207 -978 86 -172 167 -290 292 -424 168 -180
352 -317 578 -427 643 -316 1380 -254 1940 164 173 129 368 336 493 524 32 48
51 68 62 65 13 -3 1622 -930 1640 -944 15 -13 -213 -354 -356 -533 -198 -247
-495 -527 -752 -708 -313 -221 -718 -417 -1073 -521 -574 -167 -1184 -200
-1779 -95 -574 101 -1122 329 -1595 664 -390 276 -761 671 -1000 1063 -31 50
-66 105 -77 120 -31 45 -162 311 -211 432 -98 240 -183 531 -232 799 -14 77
-27 142 -30 144 -2 2 -439 -337 -972 -753 l-968 -756 -5 1633 -5 1633 -2
-1985 c-2 -1276 1 -2010 7 -2055 26 -182 107 -383 208 -515 56 -74 177 -192
243 -237 24 -17 1122 -653 2439 -1413 1594 -921 2420 -1392 2471 -1411 114
-42 224 -59 374 -59 153 0 272 18 383 59 53 19 837 467 2472 1411 1317 760
2415 1397 2440 1413 66 46 195 172 249 245 64 85 124 199 156 297 58 176 55
28 55 3037 0 1930 -3 2790 -11 2844 -35 251 -181 511 -386 687 -74 64 -75 64
-443 277 -140 81 -325 188 -410 237 -226 131 -541 313 -730 421 -91 52 -183
105 -205 119 -22 13 -52 28 -67 34 -16 6 -28 14 -28 19 0 4 -15 13 -32 21 -18
7 -45 21 -60 31 -16 11 -28 17 -28 13 0 -3 -10 3 -22 15 -12 11 -25 21 -30 21
-4 1 -13 2 -18 3 -6 0 -14 6 -18 12 -9 14 -54 39 -64 36 -5 -1 -8 3 -8 9 0 5
-4 8 -9 5 -5 -3 -21 6 -35 19 -15 14 -32 23 -37 20 -5 -4 -9 -1 -9 4 0 6 -4
11 -10 11 -5 0 -9 -4 -7 -9z m-283 -3780 c0 -20 -37 -374 -45 -433 l-5 -38
180 0 c99 0 180 1 180 3 0 1 11 105 25 231 14 126 25 234 25 242 0 11 30 14
161 14 l160 0 -6 -42 c-7 -52 -45 -418 -45 -435 0 -10 35 -13 140 -13 l140 0
0 -155 0 -154 -157 -3 -158 -3 -17 -165 c-9 -91 -19 -189 -22 -217 l-6 -53
135 0 135 0 0 -150 0 -150 -150 0 c-82 0 -150 -3 -151 -7 0 -5 -12 -125 -27
-268 l-27 -260 -164 -3 -163 -3 6 38 c3 21 15 128 26 238 11 110 23 215 26
233 l5 32 -181 0 c-167 0 -180 -1 -180 -18 0 -10 -11 -125 -25 -256 -14 -131
-25 -244 -25 -252 0 -11 -30 -14 -160 -14 l-160 0 0 24 c0 14 11 130 25 258
14 128 25 239 25 246 0 9 -35 12 -140 12 l-140 0 0 150 0 149 158 3 157 3 22
200 c12 110 22 208 22 218 1 15 -12 17 -134 17 l-136 0 3 153 3 152 150 5 150
5 26 240 c15 132 27 241 28 243 0 1 71 2 156 2 144 0 155 -1 155 -19z"/>
<path d="M9120 7318 c0 -2 -9 -86 -20 -188 -11 -102 -20 -200 -20 -217 l0 -33
174 0 175 0 5 43 c4 23 13 110 21 192 8 83 17 162 20 178 l5 27 -180 0 c-99 0
-180 -1 -180 -2z"/>
</g>
</svg>
