<?xml version="1.0" encoding="utf-8"?>
<!-- Generator: Adobe Illustrator 24.1.1, SVG Export Plug-In . SVG Version: 6.00 Build 0)  -->
<svg version="1.1" id="Layer_1" xmlns="http://www.w3.org/2000/svg" xmlns:xlink="http://www.w3.org/1999/xlink" x="0px" y="0px"
	 viewBox="0 0 48 48" style="enable-background:new 0 0 48 48;" xml:space="preserve">
<style type="text/css">
	.st0{fill-rule:evenodd;clip-rule:evenodd;fill:#283593;}
	.st1{fill-rule:evenodd;clip-rule:evenodd;fill:#5C6BC0;}
	.st2{fill-rule:evenodd;clip-rule:evenodd;fill:#FFFFFF;}
	.st3{fill-rule:evenodd;clip-rule:evenodd;fill:#3949AB;}
</style>
<g id="surface1">
	<path class="st0" d="M22.7,0.3c0.8-0.4,1.7-0.4,2.5,0C29.1,2.5,40.6,9,44.5,11.1c0.8,0.4,1.2,1.2,1.3,2.1v21.6
		c0,0.9-0.5,1.7-1.3,2.1L25.3,47.7c-0.8,0.4-1.7,0.4-2.5,0L3.5,36.9c-0.8-0.4-1.2-1.2-1.3-2.1V13.2c0-0.9,0.5-1.7,1.3-2.1
		C7.4,9,18.9,2.5,22.7,0.3z"/>
	<path class="st1" d="M2.6,35.9c-0.3-0.4-0.3-0.8-0.3-1.3V13.1c0-0.9,0.5-1.7,1.3-2.1C7.4,8.9,18.9,2.5,22.7,0.3
		c0.8-0.4,1.8-0.4,2.6,0C29.1,2.5,40.6,8.9,44.4,11c0.3,0.2,0.5,0.4,0.8,0.7L2.6,35.9z"/>
	<path class="st2" d="M24,8c8.8,0,16,7.2,16,16s-7.2,16-16,16S8,32.8,8,24S15.2,8,24,8z M24,16c4.4,0,8,3.6,8,8s-3.6,8-8,8
		s-8-3.6-8-8S19.6,16,24,16z"/>
	<path class="st3" d="M45.1,11.7c0.6,0.6,0.6,1.4,0.6,2c0,4.3,0,16.7,0,21c0,0.5-0.1,0.9-0.4,1.3L23.5,24L45.1,11.7z"/>
</g>
</svg>
