<?xml version="1.0" encoding="utf-8"?>
<!-- Generator: Adobe Illustrator 24.1.1, SVG Export Plug-In . SVG Version: 6.00 Build 0)  -->
<svg version="1.1" id="CB" xmlns="http://www.w3.org/2000/svg" xmlns:xlink="http://www.w3.org/1999/xlink" x="0px" y="0px"
	 viewBox="0 0 1000 1000" style="enable-background:new 0 0 1000 1000;" xml:space="preserve">
<style type="text/css">
	.cb1{fill-rule:evenodd;clip-rule:evenodd;fill:#F8EBE1;}
</style>
<g>
	<g>
		<path class="cb1" d="M872.8,509.5c-11.5-31.1-26.3-53.8-42.1-79.5c-7.9-12.9-12.2-26.1-20.3-39c-10.2-16.3-21.5-31-26.5-53
			c-3.9-17.3,14-45.9,20.3-56.1c16.1-26.2,30.2-54.2,46.8-81.1c9.2-14.9,23.2-31.6,29.6-48.3c2.9-7.6,3-20.1,1.6-26.5
			C873.8,89,860,76.4,821.3,70c-4.4,2.7-11.6,1.1-17.1,3.1c-7.2,2.6-15.8,7.9-21.8,12.5c-15.9,12.1-27.8,47.2-39,65.5
			c-26.4,43.1-49.5,88.8-76.4,132.5c-85.6,139.3-162.5,286.1-247.8,425.5c-16.7,27.3-28.5,55.4-45.2,82.6
			c-14.9,24.3-31.6,49.6-45.2,74.8c-10.2,18.9-6.1,45.6,9.4,56.1c12,8.2,34.4,6.2,54.6,6.2h118.5c41.9,0,94.8,5.8,129.4-4.7
			c98.5-29.9,114.4-82.9,162.1-160.5c23.1-37.6,51.2-76.5,68.6-118.5c7.1-17.1,7.9-36.2,12.5-56.1
			C890.1,561,879.4,527.5,872.8,509.5z M754.3,606.2c-12.5,38-39.3,71.9-59.2,104.4c-16,26.2-27.2,57.2-51.4,74.8
			c-10,7.3-23.6,14.7-35.8,18.7c-6.9,2.3-13.5,1.1-18.7,4.7c-22.9,0.5-67.3,6.4-73.3-10.9c-5-7.5-0.9-16.4,3.1-23.4
			c11.3-19.6,23-38.9,34.3-59.2c20.9-37.6,44.6-75.7,67-112.2c26.9-43.8,48.7-90.3,77.9-130.9c3.6-0.4,4.4-0.3,6.2-1.6
			c4.5,0.6,6.7,1,9.4,3.1c11.3,4,12.8,15.5,18.7,24.9C747.5,522.7,768.5,563.1,754.3,606.2z M243.1,598.4c-4.2-16.5-3-42.8,1.6-57.7
			c8-26.3,25.7-48.4,39-70.1c14.8-24.2,25.5-49.2,40.5-73.3c19.4-31.2,46.2-50.8,87.3-60.8h23.4c34.7,0,62.5,1.6,76.4-18.7
			c6.9-10.1,13.2-22.6,18.7-32.7c3.3-6,7.6-14.2,9.4-20.3c7-25.1-16.1-44-31.2-48.3H388c-8.6,5.4-38.3,6.7-49.9,10.9
			c-25.2,9.3-47.1,25.5-67,40.5c-30.9,23.3-46.4,67.6-67,101.3c-29.1,47.6-64.1,94.5-82.6,151.2c-9.2,28.2-9.1,76.2,0,104.4
			c8.4,26.1,21.5,47.6,34.3,68.6c14,22.9,29.7,69.8,56.1,77.9c38.1,11.8,48.4-25,60.8-45.2c5.5-8.9,18.3-21.4,14-39
			C278.7,653.9,251.9,633.1,243.1,598.4z"/>
	</g>
</g>
</svg>
