<?xml version="1.0" encoding="utf-8"?>
<!-- Generator: Adobe Illustrator 24.1.1, SVG Export Plug-In . SVG Version: 6.00 Build 0)  -->
<svg version="1.1" id="Layer_1" xmlns="http://www.w3.org/2000/svg" xmlns:xlink="http://www.w3.org/1999/xlink" x="0px" y="0px"
	 viewBox="0 0 1000 1000" style="enable-background:new 0 0 1000 1000;" xml:space="preserve">
<style type="text/css">
	.qut1{fill-rule:evenodd;clip-rule:evenodd;fill:#F8EBE1;}
</style>
<g>
	<g>
		<path class="qut1" d="M978.6,24.4H53.3c-9,0-21.5-1.4-28.7,1v954h955V53.1C979.6,44.1,981,31.6,978.6,24.4z M471.5,471.2H370.6
			c-5-2.2-10.5-11.4-13.8-15.8c-7.1-9.4-17.4-16.1-24.7-25.7c-7.9-7.6-15.8-15.2-23.7-22.7c-9.3-12.3-20.8-23.8-31.6-34.6
			c-5.6-5.3-11.2-10.5-16.8-15.8c-7-9.3-16.9-15.7-23.7-24.7c-6.9-9.1-19.4-24.4-28.7-30.6v-1h96.9c8.2,8.6,16.5,17.1,24.7,25.7
			c4.4-2.6,3.5-8.2,4.9-13.8c5.5-21-0.4-45.9-7.9-60.3c-15-28.6-60.5-62.8-108.7-47.5c-9.8,3.1-20.8,8.2-28.7,13.8
			c-26,18.6-51,66.8-32.6,110.7c8.9,21.4,23.6,34.9,42.5,46.5c12.5,7.7,40.5,17.8,61.3,9.9c4.6,6.9,12.1,11.9,17.8,17.8
			c10.3,10.5,20.8,21.8,29.7,33.6c5.2,6.9,15.7,12,18.8,20.8h1v1c-13.8,6.7-28.3,12.5-45.5,16.8c-27.5,7-67,3-89-4.9
			c-56.6-20.5-91-52.5-113.7-106.8c-13.4-32-18.4-82.9-5.9-120.6c16.3-49.3,52.1-89.9,97.9-109.7c11.5-5,24.2-8.5,36.6-11.9
			c6.1-1.7,14.8,0.1,19.8-3c17.5,0,36.4-1.7,51.4,2c69.5,16.9,115,56.9,138.4,119.6c15.6,42,9.3,92.4-5.9,128.5
			c-3.8,9-6.6,19.2-12.9,25.7c1.8,8.6,13.2,15.2,18.8,20.8c10.1,10.1,20.9,20.1,29.7,31.6c2.5,3.3,7.4,4.8,9.9,7.9
			c4.5,5.7,8.7,11.8,14.8,15.8V471.2z M711.7,387.2c-10.8,41.5-37.8,69.1-77.1,82.1c-9.2,3-17.2,2.6-27.7,4.9c-16,3.7-44,3.9-60.3,0
			c-20.7-5-40.1-10.2-55.4-20.8c-21.4-14.9-38.2-37.3-46.5-65.2c-2.2-7.4-1-17.9-1-26.7V119.3c29.7,0.3,59.3,0.7,89,1v183.9
			c0,16.2-3.2,64,2,74.1c8.5,16.5,52.4,21.4,74.1,11.9c9.2-4.1,10.3-10.9,15.8-18.8V139.1c7,3.3,17.9,17.3,22.7,23.7
			c3.6,3.3,7.3,6.6,10.9,9.9c10.2,10.2,21.1,20.9,30.6,31.6c7.5,8.5,14.8,18.8,23.7,25.7v105.8C712.7,352,715.4,372.9,711.7,387.2z
			 M939.1,206.3h-70.2v264.9h-91.9V206.3h-60.3c-4.2-1.9-23-23.8-26.7-28.7c-9.2-8.9-18.5-17.8-27.7-26.7
			c-7.7-10.2-18.1-22.6-28.7-29.7v-1h265.9c6.1,0,17.6,1.6,21.7-1c5.9-0.1,13.5-0.5,17.8,1V206.3z"/>
	</g>
</g>
</svg>
