<?xml version="1.0" encoding="utf-8"?>
<!-- Generator: Adobe Illustrator 24.1.1, SVG Export Plug-In . SVG Version: 6.00 Build 0)  -->
<svg version="1.1" id="Layer_1" xmlns="http://www.w3.org/2000/svg" xmlns:xlink="http://www.w3.org/1999/xlink" x="0px" y="0px"
	 viewBox="0 0 1000 1000" style="enable-background:new 0 0 1000 1000;" xml:space="preserve">
<style type="text/css">
	.wm1{fill-rule:evenodd;clip-rule:evenodd;fill:#F8EBE1;}
</style>
<path id="WM" class="wm1" d="M597.4,479.1c8,0,16,0,24,0c1.5-24.8,11.6-47.8,20.8-65.7c27.1-52.4,56.7-86.1,115.3-107.3
	c18.2-6.6,53-13,78.5-6.4c9.9,2.5,22,5.4,32,9.6c71.4,30.1,125.1,110.5,124.9,213c-73.1,0-146.3,0-219.4,0c0,0.5,0,1.1,0,1.6
	c-0.5,0-1.1,0-1.6,0c-0.4,26.9-12.7,50.3-22.4,68.9C723.4,643.1,688.8,680,631,698.5c-8.8,2.8-15.7,1-25.6,3.2
	c-15.2,3.4-38.5,2.4-52.9-1.6c-72.2-20.1-109.6-68.2-136.1-134.5c-5-12.4-10.8-26.3-11.2-43.2c-8,0-16,0-24,0c0,0.5,0,1.1,0,1.6
	c-0.5,0-1.1,0-1.6,0c-0.4,26.9-12.7,50.3-22.4,68.9c-8,15.3-14.3,28.5-24,41.6c-34.7,46.7-119.2,91.1-198.6,57.7
	C63.1,662,8.2,580.7,8,479.1c73.7,0,147.4,0,221,0c1.2-20.7,9.4-39,16-54.5c23.9-56.1,56.8-95.4,115.3-116.9
	c19.5-7.2,55.1-15.3,83.3-8C519.3,319.2,591.3,392.2,597.4,479.1z"/>
</svg>
