<?xml version="1.0" encoding="utf-8"?>
<!-- Generator: Adobe Illustrator 24.1.1, SVG Export Plug-In . SVG Version: 6.00 Build 0)  -->
<svg version="1.1" xmlns="http://www.w3.org/2000/svg" xmlns:xlink="http://www.w3.org/1999/xlink" x="0px" y="0px"
	 viewBox="0 0 819.4 320.6" style="enable-background:new 0 0 819.4 320.6;" xml:space="preserve">
<style type="text/css">
	.stcloud20{clip-path:url(#Cloud_1_Clip_1_1_);fill-rule:evenodd;clip-rule:evenodd;fill:#FCC5A8;}
	.stcloud21{clip-path:url(#Cloud_1_Clip_1_1_);fill-rule:evenodd;clip-rule:evenodd;fill:#F7ACC2;}
	.stcloud22{clip-path:url(#Cloud_1_Clip_1_1_);fill-rule:evenodd;clip-rule:evenodd;fill:#EA9BC3;}
	.stcloud23{clip-path:url(#Cloud_1_Clip_1_1_);fill-rule:evenodd;clip-rule:evenodd;fill:#75CEDA;}
</style>
<g id="Cloud_2">
	<g id="Cloud_Clip">
		<defs>
			<path id="Cloud_1_Clip_1" d="M199.1,306.7c47.1,3.6,47.3,10.2,88,13c76.8,5.4,102.5-16.3,172-25
				c123.6-15.5,143.5,40.4,245.1,12.6c25.5-7,98.8-27,112.9-81.6c9.7-37.6-14.4-69.9-16-72c-25.6-33.2-75.5-45.2-123-27
				c-1-4.3-8.9-35.7-39-50c-26.9-12.8-60.6-6.5-84,16c-5.6-14.4-20.8-47.6-56-70c-43.9-27.9-110.1-33.6-156,3
				c-31.5,25.2-41,60.4-44,75c-31.6-45.2-89.6-55-125-30c-25.7,18.1-37.8,53.5-31,89c-40.3-29.6-95.6-22.9-125,12
				c-34.6,41-14.5,108.1,19,132C69.2,326.7,98.8,299.1,199.1,306.7z"/>
		</defs>
		<use xlink:href="#Cloud_1_Clip_1"  style="overflow:visible;fill-rule:evenodd;clip-rule:evenodd;fill:#FEEAE0;"/>
		<clipPath id="Cloud_1_Clip_1_1_">
			<use xlink:href="#Cloud_1_Clip_1"  style="overflow:visible;"/>
		</clipPath>
		<path id="Cloud_1_Clip_5" class="stcloud20" d="M-8.9,212.7c34.6-21.4,60-37.1,95-36c51.8,1.6,72.3,38.1,122,28c24.4-5,33.2-16.6,59-14
			c24.7,2.5,28.9,14.4,52,14c24.5-0.5,28.9-14.1,54-15c22.1-0.8,26.7,9.4,47,13c41.3,7.3,52.3-31.5,101-35c34.2-2.4,67.9,13.4,82,20
			c26,12.2,36.8,24,55,21c18.5-3.1,21.9-17.7,40-31c34.1-24.9,93.6-25.5,131,3c30,22.9,37,58,40,73c12.5,62.4-16.6,115.9-26,132
			c-96.7,166.1-420.1,232.4-693,170c-32.8-7.5-292.5-67.2-298-176C-151.9,301.1-22,220.8-8.9,212.7z"/>
		<path id="Cloud_1_Clip_4" class="stcloud21" d="M7.1,255.7c4.6-9.5,13.4-28,33.2-41.5c24-16.4,50-15.8,54.6-15.6
			c40.3,1.4,45.4,29.3,84.2,34.1c30.6,3.8,31.6-13,77-17c31.9-2.8,34.3,5.3,92,9c29.1,1.9,50.6,3.3,77-1c42.1-6.8,46.4-19.9,77-27
			c78.5-18.1,120.4,51.7,183,27c26.3-10.4,23-24.3,54.8-34.1c4.1-1.3,61-18,98.1,14.3c10,8.7,15.1,18,17.2,21.8
			c23.4,43.4,23.2,146.7-17.2,203.9c-51.2,72.3-150.9,48.3-534,33c-216.6-8.6-348.5-7.5-363-60C-62.7,390-55.9,386.9,7.1,255.7z"/>
		<path id="Cloud_1_Clip_3" class="stcloud22" d="M20.1,248c24.4-23.9,67.9-18.4,76-17.3c37.5,4.7,41,23.7,75,26.3c36.4,2.8,40-18.2,79-19
			c43.5-0.9,48.6,25.1,97,27.7c29.3,1.5,53.6-6.6,83.7-16.6c45-15,58.3-29.6,83.3-23.4c20.8,5.1,20.1,17.3,44,23
			c27,6.5,33.7-7.7,63-4c35.3,4.5,40.3,26.9,62,22c19.2-4.3,19.1-22.7,50-40c14.3-8,26.6-11,35-13c13.3-3.2,56.9-13.7,89,4.3
			c39.2,22,53.1,82.2,42,125c-17.7,68.1-99.2,97.7-149,115c-121.4,42.2-175.4,9-475-20c-151.1-14.6-224.7-14.7-257-70
			C-1.8,334.1-8.2,275.7,20.1,248z"/>
		<path id="Cloud_1_Clip_2" class="stcloud23" d="M69.7,328.2c70,29,150.3,51.7,181,54c79.1,5.9,132.3-7.5,211-17
			c83.5-10.1,246.4-29.7,282-26c13.9,1.5,57.3,6.9,82-19c23.5-24.6,24.9-72.2,7-84c-21.2-14-76.3,38.6-128,47
			c-28.5,4.6-66.4,4.9-110-2c-39.3-6.2-59.2-22.1-99-24c-73.7-3.6-103.6,43.9-174,33c-20.3-3.1-45.2-17.2-76-16
			c-26.6,1-37.4,12.5-64,14c-54.3,3.1-90.1-45.9-137-32c-15.2,4.5-32.4,15.5-33,28C10.8,301.1,40.6,316.1,69.7,328.2z"/>
	</g>
</g>
<g id="Random">
</g>
<g id="Random2">
</g>
</svg>
