<?xml version="1.0" encoding="utf-8"?>
<!-- Svg Vector Icons : http://www.onlinewebfonts.com/icon -->
<!DOCTYPE svg PUBLIC "-//W3C//DTD SVG 1.1//EN" "http://www.w3.org/Graphics/SVG/1.1/DTD/svg11.dtd">
<svg version="1.1" xmlns="http://www.w3.org/2000/svg" xmlns:xlink="http://www.w3.org/1999/xlink" x="0px" y="0px" viewBox="0 0 1000 1000" enable-background="new 0 0 1000 1000" xml:space="preserve">
<metadata> Svg Vector Icons : http://www.onlinewebfonts.com/icon </metadata>
<g><g transform="translate(0.000000,511.000000) scale(0.100000,-0.100000)"><path d="M6989.8,4950.3c-281.7-76.6-551.2-202.1-787-361.3c-98-67.4-612.5-560.4-1142.2-1090.2L4096,2531.1h367.5c379.7,0,652.3-42.9,989.1-156.2l196-64.3l633.9,630.8c765.6,759.4,829.9,799.2,1289.2,799.2c260.3,0,309.3-9.2,468.5-88.8c208.2-107.2,382.8-284.8,502.2-514.5c73.4-143.9,82.7-196,85.7-453.2c0-480.8,6.2-471.6-1252.5-1739.4c-591-594.1-1142.2-1126.9-1228-1185.1c-416.5-287.8-995.2-238.8-1353.5,113.3c-113.3,110.2-150,128.6-294,140.8c-217.4,18.4-281.7-18.4-630.8-370.5l-287.8-290.9l113.3-156.2c419.5-569.6,1243.3-934,1990.5-882c462.4,33.7,866.7,174.6,1221.9,431.8c232.7,168.4,2455.9,2397.8,2590.7,2599.9c150.1,220.5,272.6,499.2,342.9,787c95,370.5,73.5,915.6-49,1280c-241.9,719.6-771.7,1246.3-1500.5,1494.4C7951.4,5023.8,7335.9,5042.2,6989.8,4950.3z"/><path d="M4059.3,1885c-241.9-39.8-578.8-165.4-820.7-309.3c-171.5-101.1-447.1-358.3-1402.5-1307.6C1180.7-381.1,589.7-993.5,522.4-1094.6C347.8-1345.7,207-1667.2,145.7-1952c-79.6-355.2-52.1-897.3,58.2-1228c248-728.8,774.8-1258.6,1494.4-1500.5c364.4-122.5,909.5-143.9,1280-49c315.4,79.6,591,205.1,839.1,382.8c104.1,76.6,612.5,563.4,1136.1,1087.1l949.3,952.3h-367.5c-379.7,0-652.2,42.9-989.1,156.2l-196,64.3l-630.8-624.7c-771.7-762.5-839.1-805.4-1292.3-805.4c-238.8,3.1-315.4,15.3-437.9,73.5c-214.4,104.1-425.7,309.3-526.7,514.5c-82.7,159.2-91.9,208.2-91.9,468.5c0,490-9.2,474.6,1249.4,1739.4C3214.1-126.9,3768.4,405.9,3851,464.1C4267.5,752,4846.3,703,5204.6,350.8c113.3-110.2,150-128.6,294-140.8c217.4-18.4,281.7,18.4,630.8,373.6l287.9,290.9l-125.5,168.4c-238.9,315.4-704.3,630.8-1123.9,762.5C4818.7,1915.6,4414.5,1943.2,4059.3,1885z"/></g></g>
</svg>